{
	"asset":{
		"generator":"Khronos glTF Blender I/O v5.0.21",
		"version":"2.0"
	},
	"scene":0,
	"scenes":[
		{
			"name":"Scene",
			"nodes":[
				1
			]
		}
	],
	"nodes":[
		{
			"mesh":0,
			"name":"AssaultRifle_2",
			"rotation":[
				-0.70710688829422,
				0,
				0,
				0.7071066498756409
			],
			"scale":[
				100,
				99.99999237060547,
				99.99999237060547
			]
		},
		{
			"children":[
				0
			],
			"name":"RootNode"
		}
	],
	"materials":[
		{
			"name":"Wood",
			"pbrMetallicRoughness":{
				"baseColorFactor":[
					0.1062876358628273,
					0.07202348858118057,
					0.054723627865314484,
					1
				],
				"metallicFactor":0.4000000059604645,
				"roughnessFactor":0.41508710384368896
			}
		},
		{
			"name":"Black",
			"pbrMetallicRoughness":{
				"baseColorFactor":[
					0.021572990342974663,
					0.02198585495352745,
					0.023277824744582176,
					1
				],
				"metallicFactor":0.4000000059604645,
				"roughnessFactor":0.41508710384368896
			}
		},
		{
			"name":"DarkMetal",
			"pbrMetallicRoughness":{
				"baseColorFactor":[
					0.03759999945759773,
					0.03756696358323097,
					0.0366305373609066,
					1
				],
				"metallicFactor":0.4000000059604645,
				"roughnessFactor":0.41508710384368896
			}
		},
		{
			"name":"Metal",
			"pbrMetallicRoughness":{
				"baseColorFactor":[
					0.05330074951052666,
					0.05478254705667496,
					0.0536000020802021,
					1
				],
				"metallicFactor":0.4000000059604645,
				"roughnessFactor":0.41508710384368896
			}
		},
		{
			"name":"DarkWood",
			"pbrMetallicRoughness":{
				"baseColorFactor":[
					0.08197512477636337,
					0.057638805359601974,
					0.04415309056639671,
					1
				],
				"metallicFactor":0.4000000059604645,
				"roughnessFactor":0.41508710384368896
			}
		}
	],
	"meshes":[
		{
			"name":"AssaultRifle_2",
			"primitives":[
				{
					"attributes":{
						"POSITION":0,
						"NORMAL":1
					},
					"indices":2,
					"material":0
				},
				{
					"attributes":{
						"POSITION":3,
						"NORMAL":4
					},
					"indices":5,
					"material":1
				},
				{
					"attributes":{
						"POSITION":6,
						"NORMAL":7
					},
					"indices":8,
					"material":2
				},
				{
					"attributes":{
						"POSITION":9,
						"NORMAL":10
					},
					"indices":11,
					"material":3
				},
				{
					"attributes":{
						"POSITION":12,
						"NORMAL":13
					},
					"indices":14,
					"material":4
				}
			]
		}
	],
	"accessors":[
		{
			"bufferView":0,
			"componentType":5126,
			"count":428,
			"max":[
				0.02487124130129814,
				0.0008368311682716012,
				0.006539423484355211
			],
			"min":[
				-0.015586303547024727,
				-0.0008368338458240032,
				-0.0027251734863966703
			],
			"type":"VEC3"
		},
		{
			"bufferView":1,
			"componentType":5126,
			"count":428,
			"type":"VEC3"
		},
		{
			"bufferView":2,
			"componentType":5123,
			"count":654,
			"type":"SCALAR"
		},
		{
			"bufferView":3,
			"componentType":5126,
			"count":822,
			"max":[
				0.02457498013973236,
				0.0007624374702572823,
				0.008082782849669456
			],
			"min":[
				-0.016048097983002663,
				-0.0007624378777109087,
				-0.007415414787828922
			],
			"type":"VEC3"
		},
		{
			"bufferView":4,
			"componentType":5126,
			"count":822,
			"type":"VEC3"
		},
		{
			"bufferView":5,
			"componentType":5123,
			"count":1206,
			"type":"SCALAR"
		},
		{
			"bufferView":6,
			"componentType":5126,
			"count":784,
			"max":[
				0.038168471306562424,
				0.000784133153501898,
				0.007774773519486189
			],
			"min":[
				-0.0017887505237013102,
				-0.0007841348415240645,
				0.0014525839360430837
			],
			"type":"VEC3"
		},
		{
			"bufferView":7,
			"componentType":5126,
			"count":784,
			"type":"VEC3"
		},
		{
			"bufferView":8,
			"componentType":5123,
			"count":1200,
			"type":"SCALAR"
		},
		{
			"bufferView":9,
			"componentType":5126,
			"count":476,
			"max":[
				0.0373491495847702,
				0.0009801042033359408,
				0.008598201908171177
			],
			"min":[
				-0.001862785778939724,
				-0.0009801057167351246,
				0.005199692212045193
			],
			"type":"VEC3"
		},
		{
			"bufferView":10,
			"componentType":5126,
			"count":476,
			"type":"VEC3"
		},
		{
			"bufferView":11,
			"componentType":5123,
			"count":702,
			"type":"SCALAR"
		},
		{
			"bufferView":12,
			"componentType":5126,
			"count":72,
			"max":[
				0.0248733963817358,
				0.0008368308772332966,
				0.008481839671730995
			],
			"min":[
				0.01790713332593441,
				-0.0008368341368623078,
				0.00666219275444746
			],
			"type":"VEC3"
		},
		{
			"bufferView":13,
			"componentType":5126,
			"count":72,
			"type":"VEC3"
		},
		{
			"bufferView":14,
			"componentType":5123,
			"count":132,
			"type":"SCALAR"
		}
	],
	"bufferViews":[
		{
			"buffer":0,
			"byteLength":5136,
			"byteOffset":0,
			"target":34962
		},
		{
			"buffer":0,
			"byteLength":5136,
			"byteOffset":5136,
			"target":34962
		},
		{
			"buffer":0,
			"byteLength":1308,
			"byteOffset":10272,
			"target":34963
		},
		{
			"buffer":0,
			"byteLength":9864,
			"byteOffset":11580,
			"target":34962
		},
		{
			"buffer":0,
			"byteLength":9864,
			"byteOffset":21444,
			"target":34962
		},
		{
			"buffer":0,
			"byteLength":2412,
			"byteOffset":31308,
			"target":34963
		},
		{
			"buffer":0,
			"byteLength":9408,
			"byteOffset":33720,
			"target":34962
		},
		{
			"buffer":0,
			"byteLength":9408,
			"byteOffset":43128,
			"target":34962
		},
		{
			"buffer":0,
			"byteLength":2400,
			"byteOffset":52536,
			"target":34963
		},
		{
			"buffer":0,
			"byteLength":5712,
			"byteOffset":54936,
			"target":34962
		},
		{
			"buffer":0,
			"byteLength":5712,
			"byteOffset":60648,
			"target":34962
		},
		{
			"buffer":0,
			"byteLength":1404,
			"byteOffset":66360,
			"target":34963
		},
		{
			"buffer":0,
			"byteLength":864,
			"byteOffset":67764,
			"target":34962
		},
		{
			"buffer":0,
			"byteLength":864,
			"byteOffset":68628,
			"target":34962
		},
		{
			"buffer":0,
			"byteLength":264,
			"byteOffset":69492,
			"target":34963
		}
	],
	"buffers":[
		{
			"byteLength":69756,
			"uri":"Untitled.bin"
		}
	]
}
