{
  "accessors": [
    {
      "bufferView": 2,
      "componentType": 5126,
      "count": 12222,
      "max": [
        0.14320634305477142,
        1.0535643100738525,
        0.2440498173236847
      ],
      "min": [
        -0.08966602385044098,
        -2.350640058517456,
        -0.6725002527236938
      ],
      "type": "VEC3"
    },
    {
      "bufferView": 2,
      "byteOffset": 146664,
      "componentType": 5126,
      "count": 12222,
      "max": [
        1.0,
        1.0,
        1.0
      ],
      "min": [
        -1.0,
        -1.0,
        -1.0
      ],
      "type": "VEC3"
    },
    {
      "bufferView": 3,
      "componentType": 5126,
      "count": 12222,
      "max": [
        1.0,
        1.0,
        1.0,
        1.0
      ],
      "min": [
        -1.0,
        -1.0,
        -1.0,
        1.0
      ],
      "type": "VEC4"
    },
    {
      "bufferView": 1,
      "componentType": 5126,
      "count": 12222,
      "max": [
        0.9993081092834473,
        0.9987961053848267
      ],
      "min": [
        0.0009622573852539063,
        0.00887840986251831
      ],
      "type": "VEC2"
    },
    {
      "bufferView": 0,
      "componentType": 5125,
      "count": 29571,
      "type": "SCALAR"
    },
    {
      "bufferView": 2,
      "byteOffset": 293328,
      "componentType": 5126,
      "count": 301,
      "max": [
        0.053363241255283356,
        0.011183228343725204,
        0.06097001954913139
      ],
      "min": [
        -0.13006047904491425,
        -1.0699307918548584,
        -0.11367744207382202
      ],
      "type": "VEC3"
    },
    {
      "bufferView": 2,
      "byteOffset": 296940,
      "componentType": 5126,
      "count": 301,
      "max": [
        1.0,
        1.0,
        1.0
      ],
      "min": [
        -1.0,
        -1.0,
        -1.0
      ],
      "type": "VEC3"
    },
    {
      "bufferView": 3,
      "byteOffset": 195552,
      "componentType": 5126,
      "count": 301,
      "max": [
        0.09668973833322525,
        1.0,
        1.0,
        1.0
      ],
      "min": [
        -0.09662457555532455,
        -1.0,
        -1.0,
        1.0
      ],
      "type": "VEC4"
    },
    {
      "bufferView": 1,
      "byteOffset": 97776,
      "componentType": 5126,
      "count": 301,
      "max": [
        0.9564132690429688,
        0.9608368873596191
      ],
      "min": [
        0.10045832395553589,
        0.20212134718894958
      ],
      "type": "VEC2"
    },
    {
      "bufferView": 0,
      "byteOffset": 118284,
      "componentType": 5125,
      "count": 738,
      "type": "SCALAR"
    },
    {
      "bufferView": 2,
      "byteOffset": 300552,
      "componentType": 5126,
      "count": 366,
      "max": [
        0.009922657161951065,
        -1.0378426313400269,
        -0.2580893337726593
      ],
      "min": [
        -0.014488917775452137,
        -1.1129924058914185,
        -0.3960097134113312
      ],
      "type": "VEC3"
    },
    {
      "bufferView": 2,
      "byteOffset": 304944,
      "componentType": 5126,
      "count": 366,
      "max": [
        1.0,
        0.9999769330024719,
        0.9990012645721436
      ],
      "min": [
        -1.0,
        -1.0,
        -0.9951450228691101
      ],
      "type": "VEC3"
    },
    {
      "bufferView": 3,
      "byteOffset": 200368,
      "componentType": 5126,
      "count": 366,
      "max": [
        1.0,
        1.0,
        0.44229796528816223,
        1.0
      ],
      "min": [
        -1.0,
        -1.0,
        -0.6844715476036072,
        1.0
      ],
      "type": "VEC4"
    },
    {
      "bufferView": 1,
      "byteOffset": 100184,
      "componentType": 5126,
      "count": 366,
      "max": [
        0.9580496549606323,
        0.988404393196106
      ],
      "min": [
        0.11281245946884155,
        0.16375821828842163
      ],
      "type": "VEC2"
    },
    {
      "bufferView": 0,
      "byteOffset": 121236,
      "componentType": 5125,
      "count": 990,
      "type": "SCALAR"
    },
    {
      "bufferView": 2,
      "byteOffset": 309336,
      "componentType": 5126,
      "count": 974,
      "max": [
        0.045505888760089874,
        -0.624424397945404,
        -0.14837005734443665
      ],
      "min": [
        -0.04310879111289978,
        -0.9201322793960571,
        -0.7929920554161072
      ],
      "type": "VEC3"
    },
    {
      "bufferView": 2,
      "byteOffset": 321024,
      "componentType": 5126,
      "count": 974,
      "max": [
        1.0,
        1.0,
        1.0
      ],
      "min": [
        -1.0,
        -1.0,
        -0.9821271896362305
      ],
      "type": "VEC3"
    },
    {
      "bufferView": 3,
      "byteOffset": 206224,
      "componentType": 5126,
      "count": 974,
      "max": [
        1.0,
        0.995290994644165,
        0.10921243578195572,
        1.0
      ],
      "min": [
        -1.0,
        -0.6517236232757568,
        -0.10957732796669006,
        1.0
      ],
      "type": "VEC4"
    },
    {
      "bufferView": 1,
      "byteOffset": 103112,
      "componentType": 5126,
      "count": 974,
      "max": [
        0.8771767020225525,
        0.9636831283569336
      ],
      "min": [
        0.002188563346862793,
        0.01946079730987549
      ],
      "type": "VEC2"
    },
    {
      "bufferView": 0,
      "byteOffset": 125196,
      "componentType": 5125,
      "count": 2064,
      "type": "SCALAR"
    }
  ],
  "asset": {
    "extras": {
      "author": "Mateusz Woliński (https://sketchfab.com/jeandiz)",
      "license": "SKETCHFAB Standard (https://sketchfab.com/licenses)",
      "source": "https://sketchfab.com/3d-models/scar-heavy-mk17-04b9582eaafe4747ba7d854acf269326",
      "title": "SCAR Heavy Mk17"
    },
    "generator": "Sketchfab-16.40.0",
    "version": "2.0"
  },
  "bufferViews": [
    {
      "buffer": 0,
      "byteLength": 133452,
      "name": "floatBufferViews",
      "target": 34963
    },
    {
      "buffer": 0,
      "byteLength": 110904,
      "byteOffset": 133452,
      "byteStride": 8,
      "name": "floatBufferViews",
      "target": 34962
    },
    {
      "buffer": 0,
      "byteLength": 332712,
      "byteOffset": 244356,
      "byteStride": 12,
      "name": "floatBufferViews",
      "target": 34962
    },
    {
      "buffer": 0,
      "byteLength": 221808,
      "byteOffset": 577068,
      "byteStride": 16,
      "name": "floatBufferViews",
      "target": 34962
    }
  ],
  "buffers": [
    {
      "byteLength": 798876,
      "uri": "scene.bin"
    }
  ],
  "images": [
    {
      "uri": "textures/scar_h_baseColor.png"
    },
    {
      "uri": "textures/scar_h_metallicRoughness.png"
    },
    {
      "uri": "textures/scar_h_normal.png"
    }
  ],
  "materials": [
    {
      "doubleSided": true,
      "name": "scar_h",
      "normalTexture": {
        "index": 2
      },
      "pbrMetallicRoughness": {
        "baseColorTexture": {
          "index": 0
        },
        "metallicRoughnessTexture": {
          "index": 1
        }
      }
    }
  ],
  "meshes": [
    {
      "name": "body_scar h_0",
      "primitives": [
        {
          "attributes": {
            "NORMAL": 1,
            "POSITION": 0,
            "TANGENT": 2,
            "TEXCOORD_0": 3
          },
          "indices": 4,
          "material": 0,
          "mode": 4
        }
      ]
    },
    {
      "name": "slide_scar h_0",
      "primitives": [
        {
          "attributes": {
            "NORMAL": 6,
            "POSITION": 5,
            "TANGENT": 7,
            "TEXCOORD_0": 8
          },
          "indices": 9,
          "material": 0,
          "mode": 4
        }
      ]
    },
    {
      "name": "triger_scar h_0",
      "primitives": [
        {
          "attributes": {
            "NORMAL": 11,
            "POSITION": 10,
            "TANGENT": 12,
            "TEXCOORD_0": 13
          },
          "indices": 14,
          "material": 0,
          "mode": 4
        }
      ]
    },
    {
      "name": "mag_scar h_0",
      "primitives": [
        {
          "attributes": {
            "NORMAL": 16,
            "POSITION": 15,
            "TANGENT": 17,
            "TEXCOORD_0": 18
          },
          "indices": 19,
          "material": 0,
          "mode": 4
        }
      ]
    }
  ],
  "nodes": [
    {
      "children": [
        1
      ],
      "matrix": [
        1.0,
        0.0,
        0.0,
        0.0,
        0.0,
        2.220446049250313e-16,
        -1.0,
        0.0,
        0.0,
        1.0,
        2.220446049250313e-16,
        0.0,
        0.0,
        0.0,
        0.0,
        1.0
      ],
      "name": "Sketchfab_model"
    },
    {
      "children": [
        2
      ],
      "matrix": [
        1.0,
        0.0,
        0.0,
        0.0,
        0.0,
        0.0,
        1.0,
        0.0,
        0.0,
        -1.0,
        0.0,
        0.0,
        0.0,
        0.0,
        0.0,
        1.0
      ],
      "name": "c189f1f3d1d74fb18010dae9f839d19d.fbx"
    },
    {
      "children": [
        3
      ],
      "name": "RootNode"
    },
    {
      "children": [
        4,
        5,
        7,
        9
      ],
      "matrix": [
        100.0,
        0.0,
        0.0,
        0.0,
        0.0,
        -1.629206793918314e-05,
        -99.99999999999868,
        0.0,
        0.0,
        99.99999999999868,
        -1.629206793918314e-05,
        0.0,
        0.4401988387107849,
        16.443586349487305,
        -59.618919372558594,
        1.0
      ],
      "name": "body"
    },
    {
      "mesh": 0,
      "name": "body_scar h_0"
    },
    {
      "children": [
        6
      ],
      "matrix": [
        1.0,
        0.0,
        0.0,
        0.0,
        0.0,
        1.0,
        -2.646977960169688e-23,
        0.0,
        0.0,
        2.646977960169688e-23,
        1.0,
        0.0,
        0.0,
        0.0,
        -3.742064436096371e-09,
        1.0
      ],
      "name": "slide"
    },
    {
      "mesh": 1,
      "name": "slide_scar h_0"
    },
    {
      "children": [
        8
      ],
      "matrix": [
        1.0,
        0.0,
        0.0,
        0.0,
        0.0,
        1.0,
        -2.646977960169688e-23,
        0.0,
        0.0,
        2.646977960169688e-23,
        1.0,
        0.0,
        0.0,
        0.0,
        -3.742064436096371e-09,
        1.0
      ],
      "name": "triger"
    },
    {
      "mesh": 2,
      "name": "triger_scar h_0"
    },
    {
      "children": [
        10
      ],
      "matrix": [
        1.0,
        0.0,
        0.0,
        0.0,
        0.0,
        1.0,
        -2.646977960169688e-23,
        0.0,
        0.0,
        2.646977960169688e-23,
        1.0,
        0.0,
        0.0,
        0.0,
        -3.742064436096371e-09,
        1.0
      ],
      "name": "mag"
    },
    {
      "mesh": 3,
      "name": "mag_scar h_0"
    }
  ],
  "samplers": [
    {
      "magFilter": 9729,
      "minFilter": 9987,
      "wrapS": 10497,
      "wrapT": 10497
    }
  ],
  "scene": 0,
  "scenes": [
    {
      "name": "Sketchfab_Scene",
      "nodes": [
        0
      ]
    }
  ],
  "textures": [
    {
      "sampler": 0,
      "source": 0
    },
    {
      "sampler": 0,
      "source": 1
    },
    {
      "sampler": 0,
      "source": 2
    }
  ]
}
